<svg id="Layer_1" data-name="Layer 1" xmlns="http://www.w3.org/2000/svg" viewBox="0 0 525 525"><defs><style>.cls-1{fill:#f20a0a;}.cls-2{fill:#ea0606;}</style></defs><path class="cls-1" d="M158.2,310.06,141.73,316l-8,4.64L127.16,327l-1.9,3.38,4.23,2.53,12.24,2.32,13.73,1.06,49.83,1.06L257.66,335l23.65-2.74,35.47-8.55,24.92-6,23-4.23,24.07-3.37,17.32-1.69,15-3.17,12.46-4.65,1.9-2.74V295.7s-.85-6.34,0-7,0-6.76,0-6.76l.37-6.33s-2.48-6.34-2.7-7-1.68-4.74-2.11-6.17-1.26-4-1.26-4a34,34,0,0,0-7.39,1.91c-3.8,1.47-17.53,7.17-17.53,7.17l-34.21,12.46-29.35,11.19-23.44,9.08L295,309.63l-26.82,9.72-5.71,2.11-4.63-4.65-8.66-9.08-12.67-9.81-8.66-5.39a52.45,52.45,0,0,0-9.29-1.69c-4-.21-15,1.27-15,1.27l-11,3.38-9.08,2.43L178.05,302,165,308.16Z"/><polygon class="cls-2" points="170.03 81.59 175.52 79.9 182.91 78 189.66 76.94 197.06 76.94 207.4 78.21 219.23 81.59 226.83 84.97 234.43 89.19 240.34 94.89 249.63 106.5 253.86 115.58 253.86 131 253.86 150.42 255.54 167.32 260.61 183.79 272.65 205.53 281.94 220.95 288.27 236.15 288.27 228.76 288.27 220.53 287.22 210.18 285.53 201.31 284.05 193.08 282.36 181.25 280.54 169.22 278.77 152.75 275.6 137.97 271.59 118.96 269.48 107.14 265.89 95.95 259.77 82.64 254.49 75.89 242.24 66.81 231.05 62.59 222.18 62.59 208.46 60.9 199.38 62.16 192.2 67.23 182.06 73.35 170.03 81.59"/></svg>